# xmcd
#
# Track frame offsets:
#	150
#	22744
#	44047
#	61277
#	79162
#	92961
#	108014
#	127491
#	147708
#	162976
#	182662
#	193950
#	211587
#	230208
#	246787
#	264163
#	284944
#	301307
#
# Disc length: 4184 seconds
#
# Revision: 1
# Processed by: cddbd v1.5.2PL0 Copyright (c) Steve Scherf et al.
# Submitted via: audiograbber 1.83.01
#
DISCID=13105612
DTITLE=—борник - Woman 2 Woman CD1
DYEAR=1900
DGENRE=
TTITLE0=Eva Cassidy - Over The Rainbow
TTITLE1=Cher - Love And Understanding
TTITLE2=DNA and Suzanne Vega - Tom's Diner
TTITLE3=Diana Ross - I'm Coming Out
TTITLE4=Dusty Springfield - I Just Don't Know What To Do With Myself
TTITLE5=Joan Armatrading - Me Myself I
TTITLE6=Joan Osborne - One Of Us
TTITLE7=Donna Summer - Love's Unkind
TTITLE8=Yvonne Elliman - Love Me
TTITLE9=Gladys Knight and The Pips - Help Me Make It Through The Night
TTITLE10=Ann Peebles - I Can't Stand The Rain
TTITLE11=Diana Carroll - Ain't No Man
TTITLE12=Swing Out Sister - Am I The Same Girl
TTITLE13=Edie Brickell and The New Bohemians - What I Am
TTITLE14=Maria McKee - Show Me Heaven
TTITLE15=Phyllis Nelson - Move Closer
TTITLE16=Nina Simone - My Baby Just Cares For Me
TTITLE17=Dinah Washington - Mad About The Boy
EXTD=
EXTT0=
EXTT1=
EXTT2=
EXTT3=
EXTT4=
EXTT5=
EXTT6=
EXTT7=
EXTT8=
EXTT9=
EXTT10=
EXTT11=
EXTT12=
EXTT13=
EXTT14=
EXTT15=
EXTT16=
EXTT17=
PLAYORDER=
